<?xml version="1.0" encoding="UTF-8" standalone="no"?>
<!-- Generator: Adobe Illustrator 16.0.0, SVG Export Plug-In . SVG Version: 6.00 Build 0)  -->

<svg
   xmlns:dc="http://purl.org/dc/elements/1.1/"
   xmlns:cc="http://creativecommons.org/ns#"
   xmlns:rdf="http://www.w3.org/1999/02/22-rdf-syntax-ns#"
   xmlns:svg="http://www.w3.org/2000/svg"
   xmlns="http://www.w3.org/2000/svg"
   xmlns:sodipodi="http://sodipodi.sourceforge.net/DTD/sodipodi-0.dtd"
   xmlns:inkscape="http://www.inkscape.org/namespaces/inkscape"
   version="1.1"
   id="Layer_1"
   x="0px"
   y="0px"
   width="170"
   height="30"
   viewBox="0 0 170.00001 30"
   enable-background="new 0 0 198.43 340.16"
   xml:space="preserve"
   inkscape:version="0.48.4 r9939"
   sodipodi:docname="logo.svg"><metadata
   id="metadata33"><rdf:RDF><cc:Work
       rdf:about=""><dc:format>image/svg+xml</dc:format><dc:type
         rdf:resource="http://purl.org/dc/dcmitype/StillImage" /></cc:Work></rdf:RDF></metadata><defs
   id="defs31" /><sodipodi:namedview
   pagecolor="#ffffff"
   bordercolor="#666666"
   borderopacity="1"
   objecttolerance="10"
   gridtolerance="10"
   guidetolerance="10"
   inkscape:pageopacity="0"
   inkscape:pageshadow="2"
   inkscape:window-width="1920"
   inkscape:window-height="1018"
   id="namedview29"
   showgrid="false"
   inkscape:zoom="3.9246754"
   inkscape:cx="36.69138"
   inkscape:cy="38.279688"
   inkscape:window-x="-8"
   inkscape:window-y="-8"
   inkscape:window-maximized="1"
   inkscape:current-layer="Layer_1" />
<g
   id="g3"
   transform="translate(-19.229495,-141.2865)">
	<path
   d="m 30.488,160.321 c -0.949,-0.359 -1.615,-0.734 -1.999,-1.118 h 0.015 c -0.764,-0.772 -1.147,-1.69 -1.147,-2.738 0,-0.764 0.202,-1.458 0.61,-2.078 0.409,-0.621 0.941,-1.148 1.595,-1.582 0.655,-0.432 1.395,-0.768 2.217,-1.004 0.822,-0.235 1.645,-0.359 2.477,-0.359 2.521,0 4.683,1.014 6.485,3.043 0.212,0.262 0.32,0.581 0.32,0.951 0,0.453 -0.148,0.833 -0.449,1.128 -0.295,0.3 -0.674,0.449 -1.127,0.449 -0.319,0 -0.596,-0.09 -0.823,-0.277 -0.226,-0.177 -0.447,-0.374 -0.659,-0.585 -1.029,-1.029 -2.28,-1.542 -3.747,-1.542 -1.453,0 -2.615,0.443 -3.481,1.33 -0.163,0.162 -0.242,0.384 -0.242,0.664 0,0.282 0.128,0.474 0.394,0.577 l 7.076,2.329 c 0.99,0.384 1.655,0.754 1.999,1.118 h -0.014 c 0.763,0.778 1.146,1.69 1.146,2.738 0,0.779 -0.202,1.473 -0.611,2.088 -0.409,0.616 -0.941,1.143 -1.595,1.582 -0.66,0.438 -1.394,0.772 -2.211,1.004 -0.817,0.23 -1.639,0.349 -2.461,0.349 -2.542,0 -4.708,-1.004 -6.491,-3.013 -0.222,-0.292 -0.335,-0.621 -0.335,-0.981 0,-0.452 0.148,-0.833 0.448,-1.127 0.295,-0.295 0.674,-0.448 1.128,-0.448 0.33,0 0.616,0.099 0.847,0.295 0.23,0.197 0.442,0.384 0.634,0.566 1.029,1.029 2.286,1.546 3.768,1.546 1.438,0 2.6,-0.458 3.477,-1.365 0.152,-0.172 0.225,-0.374 0.225,-0.62 0,-0.281 -0.137,-0.478 -0.409,-0.586 l -7.06,-2.334 z"
   id="path5"
   inkscape:connector-curvature="0"
   style="fill:#1dbcd5" />
	<path
   d="m 48.024,148.434 c 0,0.517 -0.182,0.956 -0.542,1.32 -0.364,0.36 -0.802,0.542 -1.319,0.542 -0.512,0 -0.951,-0.182 -1.315,-0.542 -0.364,-0.364 -0.542,-0.803 -0.542,-1.32 0,-0.512 0.178,-0.95 0.542,-1.314 0.364,-0.364 0.803,-0.541 1.315,-0.541 0.517,0 0.956,0.177 1.319,0.541 0.36,0.364 0.542,0.801 0.542,1.314 z m -3.433,18.363 v -13.764 c 0,-0.442 0.153,-0.818 0.463,-1.128 0.305,-0.305 0.674,-0.462 1.108,-0.462 0.434,0 0.802,0.157 1.113,0.462 0.31,0.31 0.468,0.686 0.479,1.128 v 13.764 c -0.01,0.444 -0.168,0.822 -0.479,1.128 -0.311,0.305 -0.679,0.462 -1.113,0.462 -0.434,0 -0.803,-0.157 -1.108,-0.462 -0.309,-0.305 -0.463,-0.684 -0.463,-1.128 z"
   id="path7"
   inkscape:connector-curvature="0"
   style="fill:#1dbcd5" />
	<path
   d="m 52.795,151.443 h 0.709 v -5.682 c 0,-0.434 0.158,-0.804 0.464,-1.114 0.31,-0.31 0.684,-0.462 1.127,-0.462 0.434,0 0.803,0.152 1.113,0.462 0.305,0.311 0.458,0.681 0.458,1.114 v 5.682 h 1.892 c 0.434,0 0.802,0.157 1.103,0.462 0.305,0.31 0.458,0.68 0.458,1.113 0,0.443 -0.153,0.822 -0.458,1.129 -0.3,0.304 -0.669,0.462 -1.103,0.462 h -1.892 v 7.607 c 0,2.005 1.01,3.009 3.029,3.009 0.434,0 0.802,0.153 1.103,0.458 0.305,0.311 0.454,0.679 0.454,1.113 0,0.444 -0.148,0.822 -0.454,1.128 -0.3,0.305 -0.669,0.462 -1.103,0.462 -4.127,0 -6.191,-2.059 -6.191,-6.17 v -7.607 h -0.709 c -0.423,0 -0.788,-0.158 -1.098,-0.462 -0.305,-0.307 -0.458,-0.686 -0.458,-1.129 0,-0.433 0.152,-0.803 0.458,-1.113 0.311,-0.305 0.675,-0.462 1.098,-0.462 z"
   id="path9"
   inkscape:connector-curvature="0"
   style="fill:#1dbcd5" />
	<path
   d="m 65.21,151.443 h 0.709 v -5.682 c 0,-0.434 0.148,-0.804 0.462,-1.114 0.305,-0.31 0.68,-0.462 1.123,-0.462 0.434,0 0.809,0.152 1.114,0.462 0.305,0.311 0.462,0.681 0.462,1.114 v 5.682 h 1.892 c 0.433,0 0.798,0.157 1.103,0.462 0.305,0.31 0.452,0.68 0.452,1.113 0,0.443 -0.147,0.822 -0.452,1.129 -0.305,0.304 -0.67,0.462 -1.103,0.462 H 69.08 v 7.607 c 0,2.005 1.004,3.009 3.024,3.009 0.433,0 0.797,0.153 1.103,0.458 0.305,0.311 0.452,0.679 0.452,1.113 0,0.444 -0.147,0.822 -0.452,1.128 -0.306,0.305 -0.67,0.462 -1.103,0.462 -4.127,0 -6.186,-2.059 -6.186,-6.17 v -7.607 H 65.21 c -0.424,0 -0.797,-0.158 -1.103,-0.462 -0.305,-0.307 -0.463,-0.686 -0.463,-1.129 0,-0.433 0.158,-0.803 0.463,-1.113 0.306,-0.305 0.68,-0.462 1.103,-0.462 z"
   id="path11"
   inkscape:connector-curvature="0"
   style="fill:#1dbcd5" />
	<path
   d="m 88.128,163.621 c 0.453,0 0.828,0.147 1.123,0.447 0.305,0.296 0.452,0.675 0.452,1.128 0,0.443 -0.157,0.818 -0.452,1.132 -1.566,1.375 -3.408,2.059 -5.535,2.059 -2.344,0 -4.344,-0.827 -5.998,-2.482 -1.655,-1.654 -2.472,-3.649 -2.472,-5.988 0,-2.339 0.817,-4.337 2.472,-5.992 1.653,-1.65 3.653,-2.482 5.998,-2.482 2.314,0 4.314,0.833 5.987,2.482 0.828,0.817 1.448,1.728 1.862,2.732 0.414,1 0.621,2.087 0.621,3.26 0,0.454 -0.157,0.828 -0.464,1.123 -0.314,0.3 -0.688,0.448 -1.131,0.448 H 78.615 c 0.167,0.556 0.423,1.058 0.757,1.521 0.335,0.458 0.719,0.851 1.173,1.176 0.443,0.331 0.946,0.582 1.478,0.764 0.541,0.182 1.103,0.275 1.694,0.275 0.66,0 1.271,-0.104 1.822,-0.305 0.562,-0.202 1.074,-0.502 1.546,-0.906 0.305,-0.249 0.65,-0.382 1.043,-0.392 z m 0.68,-5.28 c -0.167,-0.551 -0.424,-1.058 -0.757,-1.517 -0.345,-0.462 -0.739,-0.856 -1.183,-1.181 -0.453,-0.33 -0.946,-0.582 -1.487,-0.764 -0.532,-0.182 -1.094,-0.271 -1.665,-0.271 -0.581,0 -1.143,0.088 -1.685,0.271 -0.541,0.182 -1.043,0.434 -1.497,0.764 -0.452,0.325 -0.847,0.719 -1.181,1.181 -0.325,0.458 -0.582,0.966 -0.739,1.517 h 10.194 z"
   id="path13"
   inkscape:connector-curvature="0"
   style="fill:#1dbcd5" />
	<path
   d="m 98.018,153.018 v 0.301 c 0.748,-0.602 1.575,-1.069 2.462,-1.389 0.888,-0.325 1.83,-0.487 2.847,-0.487 0.443,0 0.917,0.035 1.426,0.094 0.513,0.058 0.977,0.167 1.41,0.325 0.424,0.157 0.777,0.369 1.062,0.64 0.289,0.275 0.424,0.629 0.424,1.058 0,0.227 -0.04,0.434 -0.125,0.621 -0.089,0.192 -0.199,0.365 -0.349,0.507 -0.135,0.148 -0.304,0.261 -0.488,0.34 -0.199,0.083 -0.404,0.124 -0.623,0.124 -0.194,0 -0.414,-0.055 -0.668,-0.168 -0.633,-0.25 -1.331,-0.374 -2.068,-0.374 -0.738,0 -1.431,0.138 -2.079,0.414 -0.643,0.275 -1.201,0.654 -1.685,1.133 -0.483,0.482 -0.857,1.044 -1.131,1.688 -0.279,0.646 -0.414,1.334 -0.414,2.073 v 6.895 c 0,0.432 -0.16,0.807 -0.463,1.113 -0.304,0.305 -0.678,0.462 -1.112,0.462 -0.443,0 -0.817,-0.157 -1.126,-0.462 -0.314,-0.306 -0.458,-0.681 -0.458,-1.113 v -13.794 c 0,-0.433 0.145,-0.803 0.458,-1.113 0.309,-0.305 0.683,-0.462 1.126,-0.462 0.434,0 0.808,0.157 1.112,0.462 0.302,0.309 0.462,0.679 0.462,1.112 z"
   id="path15"
   inkscape:connector-curvature="0"
   style="fill:#1dbcd5" />
	<path
   d="m 122.765,168.387 h -11.483 c -0.215,0 -0.424,-0.043 -0.618,-0.122 -0.189,-0.08 -0.354,-0.193 -0.493,-0.34 -0.15,-0.148 -0.255,-0.315 -0.334,-0.507 -0.09,-0.192 -0.12,-0.394 -0.12,-0.605 0,-0.375 0.1,-0.701 0.314,-0.986 l 9.37,-11.217 h -8.119 c -0.424,0 -0.788,-0.158 -1.092,-0.462 -0.304,-0.307 -0.464,-0.686 -0.464,-1.129 0,-0.433 0.16,-0.803 0.464,-1.113 0.304,-0.305 0.668,-0.462 1.092,-0.462 h 11.483 c 0.22,0 0.424,0.045 0.623,0.124 0.185,0.079 0.354,0.197 0.504,0.339 0.135,0.148 0.244,0.315 0.334,0.507 0.09,0.192 0.124,0.394 0.124,0.605 0,0.414 -0.124,0.764 -0.373,1.044 l -9.346,11.164 h 8.134 c 0.434,0 0.798,0.153 1.107,0.458 0.304,0.311 0.453,0.679 0.453,1.113 0,0.444 -0.149,0.822 -0.453,1.128 -0.309,0.304 -0.674,0.461 -1.107,0.461 z"
   id="path17"
   inkscape:connector-curvature="0"
   style="fill:#ed506a" />
	<path
   d="m 148.849,153.004 c 1.336,-1.04 2.91,-1.562 4.725,-1.562 1.062,0 2.069,0.207 3.025,0.621 0.942,0.419 1.79,0.979 2.508,1.688 0.732,0.709 1.301,1.546 1.725,2.512 0.424,0.959 0.643,1.989 0.643,3.078 v 7.456 c 0,0.444 -0.159,0.822 -0.464,1.128 -0.304,0.305 -0.683,0.462 -1.111,0.462 -0.443,0 -0.817,-0.157 -1.126,-0.462 -0.314,-0.306 -0.464,-0.684 -0.464,-1.128 v -7.456 c 0,-0.646 -0.124,-1.256 -0.384,-1.832 -0.244,-0.577 -0.588,-1.074 -1.012,-1.503 -0.434,-0.432 -0.938,-0.768 -1.505,-1.024 -0.573,-0.25 -1.187,-0.374 -1.835,-0.374 -0.647,0 -1.271,0.118 -1.834,0.369 -0.568,0.247 -1.071,0.587 -1.505,1.02 -0.434,0.434 -0.778,0.936 -1.022,1.513 -0.249,0.576 -0.363,1.186 -0.363,1.832 v 7.456 c 0,0.444 -0.16,0.822 -0.464,1.128 -0.319,0.305 -0.683,0.462 -1.116,0.462 -0.444,0 -0.817,-0.157 -1.132,-0.462 -0.304,-0.306 -0.464,-0.684 -0.464,-1.128 v -13.764 c 0,-0.433 0.16,-0.808 0.464,-1.118 0.314,-0.315 0.688,-0.472 1.132,-0.472 0.434,0 0.797,0.157 1.116,0.472 0.302,0.31 0.463,0.675 0.463,1.088 z"
   id="path19"
   inkscape:connector-curvature="0"
   style="fill:#ed506a" />
	<path
   d="m 177.045,163.621 c 0.454,0 0.827,0.147 1.121,0.447 0.305,0.296 0.454,0.675 0.454,1.128 0,0.443 -0.159,0.818 -0.454,1.132 -1.564,1.375 -3.409,2.059 -5.537,2.059 -2.343,0 -4.342,-0.827 -5.996,-2.482 -1.655,-1.654 -2.482,-3.649 -2.482,-5.988 0,-2.339 0.827,-4.337 2.482,-5.992 1.654,-1.65 3.653,-2.482 5.996,-2.482 2.317,0 4.316,0.833 5.991,2.482 0.827,0.817 1.445,1.728 1.859,2.732 0.413,1 0.623,2.087 0.623,3.26 0,0.454 -0.16,0.828 -0.464,1.123 -0.313,0.3 -0.688,0.448 -1.131,0.448 H 167.53 c 0.164,0.556 0.423,1.058 0.757,1.521 0.334,0.458 0.718,0.851 1.172,1.176 0.443,0.331 0.937,0.582 1.48,0.764 0.538,0.182 1.102,0.275 1.689,0.275 0.663,0 1.271,-0.104 1.824,-0.305 0.563,-0.202 1.071,-0.502 1.545,-0.906 0.306,-0.249 0.654,-0.382 1.048,-0.392 z m 0.678,-5.28 c -0.169,-0.551 -0.424,-1.058 -0.758,-1.517 -0.344,-0.462 -0.737,-0.856 -1.181,-1.181 -0.454,-0.33 -0.947,-0.582 -1.49,-0.764 -0.539,-0.182 -1.092,-0.271 -1.665,-0.271 -0.578,0 -1.142,0.088 -1.68,0.271 -0.543,0.182 -1.047,0.434 -1.5,0.764 -0.454,0.325 -0.848,0.719 -1.182,1.181 -0.334,0.458 -0.578,0.966 -0.737,1.517 h 10.193 z"
   id="path21"
   inkscape:connector-curvature="0"
   style="fill:#ed506a" />
	<path
   d="m 126.244,159.292 0.04,-0.073 0.175,-0.291 c 0.01,-0.02 0.039,-0.05 0.06,-0.079 l 0.029,-0.055 c 0.011,-0.015 0.021,-0.03 0.03,-0.05 l 0.214,-0.314 c 0.011,-0.02 0.021,-0.025 0.021,-0.03 l 0.189,-0.252 c 0.204,-0.255 0.413,-0.502 0.638,-0.728 0.493,-0.499 1.037,-0.907 1.615,-1.223 0.394,-0.215 0.798,-0.389 1.196,-0.522 0.135,-0.043 0.274,-0.083 0.374,-0.107 0.363,-0.089 0.718,-0.133 1.041,-0.133 1.027,0 1.735,0.429 2.148,0.788 0.215,0.182 0.374,0.37 0.483,0.507 0.104,-0.142 0.274,-0.33 0.488,-0.517 0.434,-0.359 1.177,-0.788 2.288,-0.788 0.1,0 0.194,0.005 0.305,0.01 0.797,0.054 1.495,0.438 2.058,1.133 0.18,0.227 0.354,0.487 0.504,0.783 -0.04,-0.941 -0.259,-1.842 -0.613,-2.684 -0.403,-0.921 -0.981,-1.782 -1.739,-2.564 -1.057,-0.439 -2.158,-0.666 -3.29,-0.666 -2.268,0 -4.396,0.881 -6.001,2.487 -1.545,1.545 -2.423,3.585 -2.473,5.766 l 0.021,-0.049 c 0.02,-0.035 0.04,-0.06 0.05,-0.084 l 0.109,-0.202 c 0.021,-0.018 0.03,-0.043 0.04,-0.063 z"
   id="path23"
   inkscape:connector-curvature="0"
   style="fill:#ed506a" />
	<path
   d="m 138.8,152.614 c 0.474,0.597 0.848,1.226 1.121,1.882 0.523,1.201 0.743,2.502 0.644,3.865 l -0.01,0.083 c -0.12,1.301 -0.494,2.537 -1.132,3.66 -0.514,0.916 -1.201,1.772 -2.028,2.536 -0.928,0.851 -1.824,1.403 -2.357,1.688 1.136,0.351 2.377,0.424 3.22,0.424 0.279,0 0.553,-0.005 0.827,-0.02 0.159,-0.01 0.329,-0.019 0.493,-0.039 1.027,-0.769 1.874,-1.773 2.452,-2.906 0.623,-1.201 0.938,-2.506 0.938,-3.875 -10e-4,-3.009 -1.586,-5.775 -4.168,-7.298 z"
   id="path25"
   inkscape:connector-curvature="0"
   style="fill:#ffd54e" />
	<path
   d="m 126.234,160.233 c 0,0 0,0.01 -0.01,0.02 l -0.011,0.015 -0.039,0.094 c -0.011,0.029 -0.021,0.054 -0.04,0.079 0,0.005 -0.01,0.03 -0.021,0.053 l -0.06,0.139 c 0.17,2.098 1.127,4.047 2.672,5.49 1.575,1.463 3.623,2.265 5.771,2.265 1.545,0 3.051,-0.418 4.361,-1.211 -0.234,0.015 -0.474,0.02 -0.688,0.02 -2.926,0 -5.278,-0.916 -6.983,-2.719 -1.48,-1.565 -2.158,-3.472 -2.472,-4.801 -0.334,-1.437 0.124,-2.427 0.668,-3.058 l -0.07,0.04 c -0.737,0.429 -1.396,1.02 -1.979,1.758 l -0.265,0.374 c -0.02,0.02 -0.02,0.03 -0.029,0.04 l -0.061,0.094 c -0.01,0.015 -0.02,0.023 -0.029,0.034 l -0.01,0.02 c -0.021,0.025 -0.04,0.05 -0.05,0.07 l -0.061,0.098 c -0.01,0.009 -0.02,0.024 -0.02,0.034 l -0.125,0.207 c -0.01,0.015 -0.02,0.03 -0.029,0.05 l -0.05,0.093 c -0.021,0.02 -0.03,0.039 -0.04,0.059 l -0.05,0.099 c -0.021,0.025 -0.03,0.045 -0.04,0.064 l -0.164,0.331 -0.07,-0.005 0,0 0.06,0.024 -0.066,0.13 z"
   id="path27"
   inkscape:connector-curvature="0"
   style="fill:#1dbcd5" />
</g>
</svg>